<?xml version="1.0" standalone="no"?><!DOCTYPE svg PUBLIC "-//W3C//DTD SVG 1.1//EN" "http://www.w3.org/Graphics/SVG/1.1/DTD/svg11.dtd"><svg class="like" height="16" viewBox="0 0 1024 1024" version="1.1" xmlns="http://www.w3.org/2000/svg"><path fill="#C30D23"  d="M950.857143 340.553143q0-46.299429-12.288-81.700571t-31.414857-56.283429-46.555429-34.011429-53.723429-17.700571-55.990857-4.571429-64 14.555429-63.158857 36.571429-49.444571 41.142857-34.304 35.145143q-10.276571 12.580571-28.013714 12.580571t-28.013714-12.580571q-13.714286-16.018286-34.304-35.145143t-49.444571-41.142857-63.158857-36.571429-64-14.555429-55.990857 4.571429-53.723429 17.700571-46.555429 34.011429-31.414857 56.283429-12.288 81.700571q0 96 106.861714 202.861714l331.995429 320 331.446857-319.414857q107.446857-107.446857 107.446857-203.446857zM1024 340.553143q0 126.281143-130.852571 257.133714l-355.986286 342.857143q-10.276571 10.276571-25.161143 10.276571t-25.161143-10.276571l-356.571429-343.990857q-5.705143-4.571429-15.725714-14.848t-31.707429-37.412571-38.838857-55.698286-30.573714-69.156571-13.421714-78.848q0-125.696 72.557714-196.571429t200.557714-70.838857q35.437714 0 72.301714 12.288t68.571429 33.133714 54.564571 39.131429 43.446857 38.838857q20.553143-20.553143 43.446857-38.838857t54.564571-39.131429 68.571429-33.133714 72.301714-12.288q128 0 200.557714 70.838857t72.557714 196.571429z" /></svg>